{
    "asset" : {
        "generator" : "Khronos glTF Blender I/O v0.9.12",
        "version" : "2.0"
    },
    "scene" : 0,
    "scenes" : [
        {
            "name" : "Scene",
            "nodes" : [
                0
            ]
        }
    ],
    "nodes" : [
        {
            "mesh" : 0,
            "name" : "Air brake piston",
            "rotation" : [
                0.7071067690849304,
                0,
                0,
                0.7071067690849304
            ],
            "scale" : [
                0.06392741948366165,
                0.06392741948366165,
                0.06392741948366165
            ],
            "translation" : [
                1.3288437128067017,
                0.1666317880153656,
                -1.0251460075378418
            ]
        }
    ],
    "materials" : [
        {
            "doubleSided" : true,
            "name" : "Material_MR.003",
            "pbrMetallicRoughness" : {
                "baseColorFactor" : [
                    0.800000011920929,
                    0.800000011920929,
                    0.800000011920929,
                    1
                ],
                "metallicFactor" : 0.987730085849762,
                "roughnessFactor" : 0
            }
        },
        {
            "doubleSided" : true,
            "name" : "Material_SG",
            "pbrMetallicRoughness" : {
                "baseColorFactor" : [
                    0.4812447130680084,
                    0.45718681812286377,
                    0.464502215385437,
                    1
                ],
                "metallicFactor" : 0.980172872543335,
                "roughnessFactor" : 0.004824310541152954
            }
        },
        {
            "doubleSided" : true,
            "name" : "Material_SG.001",
            "pbrMetallicRoughness" : {
                "baseColorFactor" : [
                    0.7176052331924438,
                    0.06661991775035858,
                    0,
                    1
                ],
                "metallicFactor" : 0.3545454740524292,
                "roughnessFactor" : 0.34545454382896423
            }
        }
    ],
    "meshes" : [
        {
            "name" : "Mesh.100",
            "primitives" : [
                {
                    "attributes" : {
                        "POSITION" : 0,
                        "NORMAL" : 1
                    },
                    "indices" : 2,
                    "material" : 0
                },
                {
                    "attributes" : {
                        "POSITION" : 3,
                        "NORMAL" : 4
                    },
                    "indices" : 5,
                    "material" : 1
                },
                {
                    "attributes" : {
                        "POSITION" : 6,
                        "NORMAL" : 7
                    },
                    "indices" : 8,
                    "material" : 2
                }
            ]
        }
    ],
    "accessors" : [
        {
            "bufferView" : 0,
            "componentType" : 5126,
            "count" : 1606,
            "max" : [
                1.6367406845092773,
                8.86809253692627,
                -0.655744731426239
            ],
            "min" : [
                -1.6228731870651245,
                -4.039159774780273,
                -4.358325004577637
            ],
            "type" : "VEC3"
        },
        {
            "bufferView" : 1,
            "componentType" : 5126,
            "count" : 1606,
            "type" : "VEC3"
        },
        {
            "bufferView" : 2,
            "componentType" : 5123,
            "count" : 9066,
            "type" : "SCALAR"
        },
        {
            "bufferView" : 3,
            "componentType" : 5126,
            "count" : 14577,
            "max" : [
                1.0069339275360107,
                9.108778953552246,
                -0.42482733726501465
            ],
            "min" : [
                -0.9930660724639893,
                4.268364906311035,
                -4.203983783721924
            ],
            "type" : "VEC3"
        },
        {
            "bufferView" : 4,
            "componentType" : 5126,
            "count" : 14577,
            "type" : "VEC3"
        },
        {
            "bufferView" : 5,
            "componentType" : 5123,
            "count" : 27828,
            "type" : "SCALAR"
        },
        {
            "bufferView" : 6,
            "componentType" : 5126,
            "count" : 1558,
            "max" : [
                1.6525816917419434,
                9.422049522399902,
                2.787943124771118
            ],
            "min" : [
                -1.6632065773010254,
                -5.304332733154297,
                -4.894539833068848
            ],
            "type" : "VEC3"
        },
        {
            "bufferView" : 7,
            "componentType" : 5126,
            "count" : 1558,
            "type" : "VEC3"
        },
        {
            "bufferView" : 8,
            "componentType" : 5123,
            "count" : 4206,
            "type" : "SCALAR"
        }
    ],
    "bufferViews" : [
        {
            "buffer" : 0,
            "byteLength" : 19272,
            "byteOffset" : 0
        },
        {
            "buffer" : 0,
            "byteLength" : 19272,
            "byteOffset" : 19272
        },
        {
            "buffer" : 0,
            "byteLength" : 18132,
            "byteOffset" : 38544
        },
        {
            "buffer" : 0,
            "byteLength" : 174924,
            "byteOffset" : 56676
        },
        {
            "buffer" : 0,
            "byteLength" : 174924,
            "byteOffset" : 231600
        },
        {
            "buffer" : 0,
            "byteLength" : 55656,
            "byteOffset" : 406524
        },
        {
            "buffer" : 0,
            "byteLength" : 18696,
            "byteOffset" : 462180
        },
        {
            "buffer" : 0,
            "byteLength" : 18696,
            "byteOffset" : 480876
        },
        {
            "buffer" : 0,
            "byteLength" : 8412,
            "byteOffset" : 499572
        }
    ],
    "buffers" : [
        {
            "byteLength" : 507984,
            "uri" : "data:application/octet-stream;base64,"
        }
    ]
}
