{
    "asset" : {
        "generator" : "Khronos glTF Blender I/O v0.9.12",
        "version" : "2.0"
    },
    "scene" : 0,
    "scenes" : [
        {
            "name" : "Scene",
            "nodes" : [
                0,
                1,
                2
            ]
        }
    ],
    "nodes" : [
        {
            "mesh" : 0,
            "name" : "roller bearing cov",
            "rotation" : [
                0.7071067690849304,
                0,
                0.7071067690849304,
                -2.149503899318006e-07
            ],
            "scale" : [
                0.06310657411813736,
                0.06310657411813736,
                0.06310657411813736
            ],
            "translation" : [
                0.770390510559082,
                0.12457016110420227,
                1.0671824216842651
            ]
        },
        {
            "mesh" : 1,
            "name" : "bearing spring",
            "rotation" : [
                0.7071067690849304,
                0,
                0.7071067690849304,
                -2.149503899318006e-07
            ],
            "scale" : [
                0.08760084956884384,
                0.08760084956884384,
                0.08760084956884384
            ],
            "translation" : [
                0.6857767105102539,
                0.15265613794326782,
                0.7433456778526306
            ]
        },
        {
            "mesh" : 2,
            "name" : "bearing bod",
            "rotation" : [
                0.7071067690849304,
                0,
                0.7071067690849304,
                -2.149503899318006e-07
            ],
            "scale" : [
                0.06310657411813736,
                0.06310657411813736,
                0.06310657411813736
            ],
            "translation" : [
                0.7779918909072876,
                0.17796573042869568,
                1.0445585250854492
            ]
        }
    ],
    "materials" : [
        {
            "doubleSided" : true,
            "name" : "Material_MRshine",
            "pbrMetallicRoughness" : {
                "baseColorFactor" : [
                    0.22024653851985931,
                    0.22024653851985931,
                    0.22024653851985931,
                    1
                ],
                "metallicFactor" : 0.9226714372634888,
                "roughnessFactor" : 0.2713887095451355
            }
        },
        {
            "doubleSided" : true,
            "name" : "Material_SG.001",
            "pbrMetallicRoughness" : {
                "baseColorFactor" : [
                    0.7176052331924438,
                    0.06661991775035858,
                    0,
                    1
                ],
                "metallicFactor" : 0.3545454740524292,
                "roughnessFactor" : 0.34545454382896423
            }
        },
        {
            "doubleSided" : true,
            "name" : "Material_SG",
            "pbrMetallicRoughness" : {
                "baseColorFactor" : [
                    0.4812447130680084,
                    0.45718681812286377,
                    0.464502215385437,
                    1
                ],
                "metallicFactor" : 0.980172872543335,
                "roughnessFactor" : 0.004824310541152954
            }
        }
    ],
    "meshes" : [
        {
            "name" : "Mesh.011",
            "primitives" : [
                {
                    "attributes" : {
                        "POSITION" : 0,
                        "NORMAL" : 1,
                        "TEXCOORD_0" : 2,
                        "TEXCOORD_1" : 3,
                        "COLOR_0" : 4
                    },
                    "indices" : 5,
                    "material" : 0
                },
                {
                    "attributes" : {
                        "POSITION" : 6,
                        "NORMAL" : 7,
                        "TEXCOORD_0" : 8,
                        "TEXCOORD_1" : 9,
                        "COLOR_0" : 10
                    },
                    "indices" : 11,
                    "material" : 1
                },
                {
                    "attributes" : {
                        "POSITION" : 12,
                        "NORMAL" : 13,
                        "TEXCOORD_0" : 14,
                        "TEXCOORD_1" : 15,
                        "COLOR_0" : 16
                    },
                    "indices" : 17,
                    "material" : 2
                }
            ]
        },
        {
            "name" : "Mesh.010",
            "primitives" : [
                {
                    "attributes" : {
                        "POSITION" : 18,
                        "NORMAL" : 19,
                        "TEXCOORD_0" : 20,
                        "TEXCOORD_1" : 21,
                        "COLOR_0" : 22
                    },
                    "indices" : 23,
                    "material" : 0
                },
                {
                    "attributes" : {
                        "POSITION" : 24,
                        "NORMAL" : 25,
                        "TEXCOORD_0" : 26,
                        "TEXCOORD_1" : 27,
                        "COLOR_0" : 28
                    },
                    "indices" : 29,
                    "material" : 2
                }
            ]
        },
        {
            "name" : "Mesh.044",
            "primitives" : [
                {
                    "attributes" : {
                        "POSITION" : 30,
                        "NORMAL" : 31,
                        "TEXCOORD_0" : 32,
                        "TEXCOORD_1" : 33,
                        "COLOR_0" : 34
                    },
                    "indices" : 35,
                    "material" : 0
                }
            ]
        }
    ],
    "accessors" : [
        {
            "bufferView" : 0,
            "componentType" : 5126,
            "count" : 611,
            "max" : [
                0.7697746753692627,
                0.3315627872943878,
                -0.7513938546180725
            ],
            "min" : [
                -1.0483901500701904,
                -0.07306349277496338,
                -2.558786392211914
            ],
            "type" : "VEC3"
        },
        {
            "bufferView" : 1,
            "componentType" : 5126,
            "count" : 611,
            "type" : "VEC3"
        },
        {
            "bufferView" : 2,
            "componentType" : 5126,
            "count" : 611,
            "type" : "VEC2"
        },
        {
            "bufferView" : 3,
            "componentType" : 5126,
            "count" : 611,
            "type" : "VEC2"
        },
        {
            "bufferView" : 4,
            "componentType" : 5126,
            "count" : 611,
            "type" : "VEC4"
        },
        {
            "bufferView" : 5,
            "componentType" : 5123,
            "count" : 3432,
            "type" : "SCALAR"
        },
        {
            "bufferView" : 6,
            "componentType" : 5126,
            "count" : 3936,
            "max" : [
                0.8777071833610535,
                0.7594000697135925,
                2.515455961227417
            ],
            "min" : [
                -0.7917287945747375,
                -1.2017598152160645,
                -5.2353434562683105
            ],
            "type" : "VEC3"
        },
        {
            "bufferView" : 7,
            "componentType" : 5126,
            "count" : 3936,
            "type" : "VEC3"
        },
        {
            "bufferView" : 8,
            "componentType" : 5126,
            "count" : 3936,
            "type" : "VEC2"
        },
        {
            "bufferView" : 9,
            "componentType" : 5126,
            "count" : 3936,
            "type" : "VEC2"
        },
        {
            "bufferView" : 10,
            "componentType" : 5126,
            "count" : 3936,
            "type" : "VEC4"
        },
        {
            "bufferView" : 11,
            "componentType" : 5123,
            "count" : 23616,
            "type" : "SCALAR"
        },
        {
            "bufferView" : 12,
            "componentType" : 5126,
            "count" : 3480,
            "max" : [
                0.5231088399887085,
                0.630733072757721,
                5.451635360717773
            ],
            "min" : [
                -0.5895541906356812,
                -1.086026906967163,
                3.7350473403930664
            ],
            "type" : "VEC3"
        },
        {
            "bufferView" : 13,
            "componentType" : 5126,
            "count" : 3480,
            "type" : "VEC3"
        },
        {
            "bufferView" : 14,
            "componentType" : 5126,
            "count" : 3480,
            "type" : "VEC2"
        },
        {
            "bufferView" : 15,
            "componentType" : 5126,
            "count" : 3480,
            "type" : "VEC2"
        },
        {
            "bufferView" : 16,
            "componentType" : 5126,
            "count" : 3480,
            "type" : "VEC4"
        },
        {
            "bufferView" : 17,
            "componentType" : 5123,
            "count" : 20736,
            "type" : "SCALAR"
        },
        {
            "bufferView" : 18,
            "componentType" : 5126,
            "count" : 512,
            "max" : [
                1.608798623085022,
                0.7144021987915039,
                4.17062520980835
            ],
            "min" : [
                -1.3557261228561401,
                -1.0003854036331177,
                2.4951729774475098
            ],
            "type" : "VEC3"
        },
        {
            "bufferView" : 19,
            "componentType" : 5126,
            "count" : 512,
            "type" : "VEC3"
        },
        {
            "bufferView" : 20,
            "componentType" : 5126,
            "count" : 512,
            "type" : "VEC2"
        },
        {
            "bufferView" : 21,
            "componentType" : 5126,
            "count" : 512,
            "type" : "VEC2"
        },
        {
            "bufferView" : 22,
            "componentType" : 5126,
            "count" : 512,
            "type" : "VEC4"
        },
        {
            "bufferView" : 23,
            "componentType" : 5123,
            "count" : 3060,
            "type" : "SCALAR"
        },
        {
            "bufferView" : 24,
            "componentType" : 5126,
            "count" : 1825,
            "max" : [
                1.6039656400680542,
                0.72725510597229,
                -0.16771778464317322
            ],
            "min" : [
                -1.7216120958328247,
                -0.7714856863021851,
                -1.665856957435608
            ],
            "type" : "VEC3"
        },
        {
            "bufferView" : 25,
            "componentType" : 5126,
            "count" : 1825,
            "type" : "VEC3"
        },
        {
            "bufferView" : 26,
            "componentType" : 5126,
            "count" : 1825,
            "type" : "VEC2"
        },
        {
            "bufferView" : 27,
            "componentType" : 5126,
            "count" : 1825,
            "type" : "VEC2"
        },
        {
            "bufferView" : 28,
            "componentType" : 5126,
            "count" : 1825,
            "type" : "VEC4"
        },
        {
            "bufferView" : 29,
            "componentType" : 5123,
            "count" : 10878,
            "type" : "SCALAR"
        },
        {
            "bufferView" : 30,
            "componentType" : 5126,
            "count" : 1676,
            "max" : [
                8.893705368041992,
                1.9497997760772705,
                5.778294563293457
            ],
            "min" : [
                3.4914016723632812,
                -1.6381877660751343,
                -5.457520484924316
            ],
            "type" : "VEC3"
        },
        {
            "bufferView" : 31,
            "componentType" : 5126,
            "count" : 1676,
            "type" : "VEC3"
        },
        {
            "bufferView" : 32,
            "componentType" : 5126,
            "count" : 1676,
            "type" : "VEC2"
        },
        {
            "bufferView" : 33,
            "componentType" : 5126,
            "count" : 1676,
            "type" : "VEC2"
        },
        {
            "bufferView" : 34,
            "componentType" : 5126,
            "count" : 1676,
            "type" : "VEC4"
        },
        {
            "bufferView" : 35,
            "componentType" : 5123,
            "count" : 3840,
            "type" : "SCALAR"
        }
    ],
    "bufferViews" : [
        {
            "buffer" : 0,
            "byteLength" : 7332,
            "byteOffset" : 0
        },
        {
            "buffer" : 0,
            "byteLength" : 7332,
            "byteOffset" : 7332
        },
        {
            "buffer" : 0,
            "byteLength" : 4888,
            "byteOffset" : 14664
        },
        {
            "buffer" : 0,
            "byteLength" : 4888,
            "byteOffset" : 19552
        },
        {
            "buffer" : 0,
            "byteLength" : 9776,
            "byteOffset" : 24440
        },
        {
            "buffer" : 0,
            "byteLength" : 6864,
            "byteOffset" : 34216
        },
        {
            "buffer" : 0,
            "byteLength" : 47232,
            "byteOffset" : 41080
        },
        {
            "buffer" : 0,
            "byteLength" : 47232,
            "byteOffset" : 88312
        },
        {
            "buffer" : 0,
            "byteLength" : 31488,
            "byteOffset" : 135544
        },
        {
            "buffer" : 0,
            "byteLength" : 31488,
            "byteOffset" : 167032
        },
        {
            "buffer" : 0,
            "byteLength" : 62976,
            "byteOffset" : 198520
        },
        {
            "buffer" : 0,
            "byteLength" : 47232,
            "byteOffset" : 261496
        },
        {
            "buffer" : 0,
            "byteLength" : 41760,
            "byteOffset" : 308728
        },
        {
            "buffer" : 0,
            "byteLength" : 41760,
            "byteOffset" : 350488
        },
        {
            "buffer" : 0,
            "byteLength" : 27840,
            "byteOffset" : 392248
        },
        {
            "buffer" : 0,
            "byteLength" : 27840,
            "byteOffset" : 420088
        },
        {
            "buffer" : 0,
            "byteLength" : 55680,
            "byteOffset" : 447928
        },
        {
            "buffer" : 0,
            "byteLength" : 41472,
            "byteOffset" : 503608
        },
        {
            "buffer" : 0,
            "byteLength" : 6144,
            "byteOffset" : 545080
        },
        {
            "buffer" : 0,
            "byteLength" : 6144,
            "byteOffset" : 551224
        },
        {
            "buffer" : 0,
            "byteLength" : 4096,
            "byteOffset" : 557368
        },
        {
            "buffer" : 0,
            "byteLength" : 4096,
            "byteOffset" : 561464
        },
        {
            "buffer" : 0,
            "byteLength" : 8192,
            "byteOffset" : 565560
        },
        {
            "buffer" : 0,
            "byteLength" : 6120,
            "byteOffset" : 573752
        },
        {
            "buffer" : 0,
            "byteLength" : 21900,
            "byteOffset" : 579872
        },
        {
            "buffer" : 0,
            "byteLength" : 21900,
            "byteOffset" : 601772
        },
        {
            "buffer" : 0,
            "byteLength" : 14600,
            "byteOffset" : 623672
        },
        {
            "buffer" : 0,
            "byteLength" : 14600,
            "byteOffset" : 638272
        },
        {
            "buffer" : 0,
            "byteLength" : 29200,
            "byteOffset" : 652872
        },
        {
            "buffer" : 0,
            "byteLength" : 21756,
            "byteOffset" : 682072
        },
        {
            "buffer" : 0,
            "byteLength" : 20112,
            "byteOffset" : 703828
        },
        {
            "buffer" : 0,
            "byteLength" : 20112,
            "byteOffset" : 723940
        },
        {
            "buffer" : 0,
            "byteLength" : 13408,
            "byteOffset" : 744052
        },
        {
            "buffer" : 0,
            "byteLength" : 13408,
            "byteOffset" : 757460
        },
        {
            "buffer" : 0,
            "byteLength" : 26816,
            "byteOffset" : 770868
        },
        {
            "buffer" : 0,
            "byteLength" : 7680,
            "byteOffset" : 797684
        }
    ],
    "buffers" : [
        {
            "byteLength" : 805364,
            "uri" : "data:application/octet-stream;base64,"
        }
    ]
}
