{
    "asset" : {
        "generator" : "Khronos glTF Blender I/O v0.9.12",
        "version" : "2.0"
    },
    "scene" : 0,
    "scenes" : [
        {
            "name" : "Scene",
            "nodes" : [
                0
            ]
        }
    ],
    "nodes" : [
        {
            "mesh" : 0,
            "name" : "Suspension spring",
            "rotation" : [
                0.5000002384185791,
                0.5000001192092896,
                0.4999997615814209,
                0.49999985098838806
            ],
            "scale" : [
                -0.016723686829209328,
                -0.016723686829209328,
                -0.016723686829209328
            ],
            "translation" : [
                2.0901453495025635,
                0.2308983951807022,
                -1.0393061637878418
            ]
        }
    ],
    "materials" : [
        {
            "doubleSided" : true,
            "name" : "Material_SG.001",
            "pbrMetallicRoughness" : {
                "baseColorFactor" : [
                    0.7176052331924438,
                    0.06661991775035858,
                    0,
                    1
                ],
                "metallicFactor" : 0.3545454740524292,
                "roughnessFactor" : 0.34545454382896423
            }
        }
    ],
    "meshes" : [
        {
            "name" : "Mesh.066",
            "primitives" : [
                {
                    "attributes" : {
                        "POSITION" : 0,
                        "NORMAL" : 1,
                        "TEXCOORD_0" : 2
                    },
                    "indices" : 3,
                    "material" : 0
                }
            ]
        }
    ],
    "accessors" : [
        {
            "bufferView" : 0,
            "componentType" : 5126,
            "count" : 20602,
            "max" : [
                9.075362205505371,
                41.97377395629883,
                15.169122695922852
            ],
            "min" : [
                -7.137460708618164,
                -42.0640754699707,
                -15.165210723876953
            ],
            "type" : "VEC3"
        },
        {
            "bufferView" : 1,
            "componentType" : 5126,
            "count" : 20602,
            "type" : "VEC3"
        },
        {
            "bufferView" : 2,
            "componentType" : 5126,
            "count" : 20602,
            "type" : "VEC2"
        },
        {
            "bufferView" : 3,
            "componentType" : 5123,
            "count" : 42510,
            "type" : "SCALAR"
        }
    ],
    "bufferViews" : [
        {
            "buffer" : 0,
            "byteLength" : 247224,
            "byteOffset" : 0
        },
        {
            "buffer" : 0,
            "byteLength" : 247224,
            "byteOffset" : 247224
        },
        {
            "buffer" : 0,
            "byteLength" : 164816,
            "byteOffset" : 494448
        },
        {
            "buffer" : 0,
            "byteLength" : 85020,
            "byteOffset" : 659264
        }
    ],
    "buffers" : [
        {
            "byteLength" : 744284,
            "uri" : "data:application/octet-stream;base64,"
        }
    ]
}
