{
    "asset" : {
        "generator" : "Khronos glTF Blender I/O v0.9.12",
        "version" : "2.0"
    },
    "scene" : 0,
    "scenes" : [
        {
            "name" : "Scene",
            "nodes" : [
                0
            ]
        }
    ],
    "nodes" : [
        {
            "mesh" : 0,
            "name" : "Frame",
            "rotation" : [
                0,
                0,
                0.7071067094802856,
                0.7071068286895752
            ],
            "scale" : [
                -0.014939500950276852,
                -0.014939500950276852,
                -0.014939500950276852
            ],
            "translation" : [
                -1.3056309223175049,
                0.13966792821884155,
                -1.0198657512664795
            ]
        }
    ],
    "materials" : [
        {
            "doubleSided" : true,
            "name" : "Material_MRshine",
            "pbrMetallicRoughness" : {
                "baseColorFactor" : [
                    0.22024653851985931,
                    0.22024653851985931,
                    0.22024653851985931,
                    1
                ],
                "metallicFactor" : 0.9226714372634888,
                "roughnessFactor" : 0.2713887095451355
            }
        }
    ],
    "meshes" : [
        {
            "name" : "Mesh.000",
            "primitives" : [
                {
                    "attributes" : {
                        "POSITION" : 0,
                        "NORMAL" : 1,
                        "TEXCOORD_0" : 2,
                        "TEXCOORD_1" : 3,
                        "COLOR_0" : 4
                    },
                    "indices" : 5,
                    "material" : 0
                }
            ]
        }
    ],
    "accessors" : [
        {
            "bufferView" : 0,
            "componentType" : 5126,
            "count" : 10314,
            "max" : [
                2.040158271789551,
                38.84233856201172,
                68.20958709716797
            ],
            "min" : [
                -3.756742000579834,
                -38.842369079589844,
                -68.20963287353516
            ],
            "type" : "VEC3"
        },
        {
            "bufferView" : 1,
            "componentType" : 5126,
            "count" : 10314,
            "type" : "VEC3"
        },
        {
            "bufferView" : 2,
            "componentType" : 5126,
            "count" : 10314,
            "type" : "VEC2"
        },
        {
            "bufferView" : 3,
            "componentType" : 5126,
            "count" : 10314,
            "type" : "VEC2"
        },
        {
            "bufferView" : 4,
            "componentType" : 5126,
            "count" : 10314,
            "type" : "VEC4"
        },
        {
            "bufferView" : 5,
            "componentType" : 5123,
            "count" : 28914,
            "type" : "SCALAR"
        }
    ],
    "bufferViews" : [
        {
            "buffer" : 0,
            "byteLength" : 123768,
            "byteOffset" : 0
        },
        {
            "buffer" : 0,
            "byteLength" : 123768,
            "byteOffset" : 123768
        },
        {
            "buffer" : 0,
            "byteLength" : 82512,
            "byteOffset" : 247536
        },
        {
            "buffer" : 0,
            "byteLength" : 82512,
            "byteOffset" : 330048
        },
        {
            "buffer" : 0,
            "byteLength" : 165024,
            "byteOffset" : 412560
        },
        {
            "buffer" : 0,
            "byteLength" : 57828,
            "byteOffset" : 577584
        }
    ],
    "buffers" : [
        {
            "byteLength" : 635412,
            "uri" : "data:application/octet-stream;base64,"
        }
    ]
}
