{
    "asset" : {
        "generator" : "Khronos glTF Blender I/O v0.9.12",
        "version" : "2.0"
    },
    "scene" : 0,
    "scenes" : [
        {
            "name" : "Scene",
            "nodes" : [
                0
            ]
        }
    ],
    "nodes" : [
        {
            "mesh" : 0,
            "name" : "Oil tank",
            "rotation" : [
                -1,
                0,
                0,
                7.549790126404332e-08
            ],
            "scale" : [
                0.06547201424837112,
                0.0419020913541317,
                0.06547201424837112
            ],
            "translation" : [
                0.5512396693229675,
                0.18606668710708618,
                -1.0932438373565674
            ]
        }
    ],
    "materials" : [
        {
            "doubleSided" : true,
            "name" : "Material_MR.001",
            "pbrMetallicRoughness" : {
                "baseColorFactor" : [
                    0.06444640457630157,
                    0.3021189868450165,
                    0.5206276774406433,
                    1
                ],
                "metallicFactor" : 0.8444785475730896,
                "roughnessFactor" : 0.1772727370262146
            }
        }
    ],
    "meshes" : [
        {
            "name" : "Mesh.049",
            "primitives" : [
                {
                    "attributes" : {
                        "POSITION" : 0,
                        "NORMAL" : 1
                    },
                    "indices" : 2,
                    "material" : 0
                }
            ]
        }
    ],
    "accessors" : [
        {
            "bufferView" : 0,
            "componentType" : 5126,
            "count" : 3246,
            "max" : [
                5.379670143127441,
                2.506145477294922,
                11.824349403381348
            ],
            "min" : [
                -5.529165267944336,
                -2.0662760734558105,
                -11.828146934509277
            ],
            "type" : "VEC3"
        },
        {
            "bufferView" : 1,
            "componentType" : 5126,
            "count" : 3246,
            "type" : "VEC3"
        },
        {
            "bufferView" : 2,
            "componentType" : 5123,
            "count" : 15114,
            "type" : "SCALAR"
        }
    ],
    "bufferViews" : [
        {
            "buffer" : 0,
            "byteLength" : 38952,
            "byteOffset" : 0
        },
        {
            "buffer" : 0,
            "byteLength" : 38952,
            "byteOffset" : 38952
        },
        {
            "buffer" : 0,
            "byteLength" : 30228,
            "byteOffset" : 77904
        }
    ],
    "buffers" : [
        {
            "byteLength" : 108132,
            "uri" : "data:application/octet-stream;base64,"
        }
    ]
}
