{
    "asset" : {
        "generator" : "Khronos glTF Blender I/O v0.9.12",
        "version" : "2.0"
    },
    "scene" : 0,
    "scenes" : [
        {
            "name" : "Scene",
            "nodes" : [
                0,
                1
            ]
        }
    ],
    "nodes" : [
        {
            "mesh" : 0,
            "name" : "Axel ",
            "rotation" : [
                0.7071068286895752,
                0,
                0.7071067690849304,
                -1.306566304037915e-07
            ],
            "scale" : [
                0.09778554737567902,
                0.09778554737567902,
                0.09778554737567902
            ],
            "translation" : [
                -0.21448181569576263,
                0.15737412869930267,
                -1.1512833833694458
            ]
        },
        {
            "mesh" : 1,
            "name" : "Wheel 1.000",
            "rotation" : [
                0,
                0,
                0.7071067690849304,
                -0.7071068286895752
            ],
            "scale" : [
                -0.0006187923718243837,
                -0.0006187923718243837,
                -0.0006187923718243837
            ],
            "translation" : [
                -0.22671540081501007,
                0.1272290199995041,
                0.14290423691272736
            ]
        }
    ],
    "materials" : [
        {
            "doubleSided" : true,
            "name" : "Material_SG",
            "pbrMetallicRoughness" : {
                "baseColorFactor" : [
                    0.4812447130680084,
                    0.45718681812286377,
                    0.464502215385437,
                    1
                ],
                "metallicFactor" : 0.980172872543335,
                "roughnessFactor" : 0.004824310541152954
            }
        }
    ],
    "meshes" : [
        {
            "name" : "Mesh.007",
            "primitives" : [
                {
                    "attributes" : {
                        "POSITION" : 0,
                        "NORMAL" : 1,
                        "TEXCOORD_0" : 2
                    },
                    "indices" : 3,
                    "material" : 0
                }
            ]
        },
        {
            "name" : "Mesh.005",
            "primitives" : [
                {
                    "attributes" : {
                        "POSITION" : 4,
                        "NORMAL" : 5,
                        "TEXCOORD_0" : 6
                    },
                    "indices" : 7,
                    "material" : 0
                }
            ]
        }
    ],
    "accessors" : [
        {
            "bufferView" : 0,
            "componentType" : 5126,
            "count" : 4467,
            "max" : [
                8.555541038513184,
                0.6857526898384094,
                0.6843994855880737
            ],
            "min" : [
                -8.55553913116455,
                -0.6857525110244751,
                -0.6843997240066528
            ],
            "type" : "VEC3"
        },
        {
            "bufferView" : 1,
            "componentType" : 5126,
            "count" : 4467,
            "type" : "VEC3"
        },
        {
            "bufferView" : 2,
            "componentType" : 5126,
            "count" : 4467,
            "type" : "VEC2"
        },
        {
            "bufferView" : 3,
            "componentType" : 5123,
            "count" : 22200,
            "type" : "SCALAR"
        },
        {
            "bufferView" : 4,
            "componentType" : 5126,
            "count" : 6926,
            "max" : [
                122.4554214477539,
                594.6159057617188,
                594.6156616210938
            ],
            "min" : [
                -73.24239349365234,
                -594.6158447265625,
                -594.6160278320312
            ],
            "type" : "VEC3"
        },
        {
            "bufferView" : 5,
            "componentType" : 5126,
            "count" : 6926,
            "type" : "VEC3"
        },
        {
            "bufferView" : 6,
            "componentType" : 5126,
            "count" : 6926,
            "type" : "VEC2"
        },
        {
            "bufferView" : 7,
            "componentType" : 5123,
            "count" : 36720,
            "type" : "SCALAR"
        }
    ],
    "bufferViews" : [
        {
            "buffer" : 0,
            "byteLength" : 53604,
            "byteOffset" : 0
        },
        {
            "buffer" : 0,
            "byteLength" : 53604,
            "byteOffset" : 53604
        },
        {
            "buffer" : 0,
            "byteLength" : 35736,
            "byteOffset" : 107208
        },
        {
            "buffer" : 0,
            "byteLength" : 44400,
            "byteOffset" : 142944
        },
        {
            "buffer" : 0,
            "byteLength" : 83112,
            "byteOffset" : 187344
        },
        {
            "buffer" : 0,
            "byteLength" : 83112,
            "byteOffset" : 270456
        },
        {
            "buffer" : 0,
            "byteLength" : 55408,
            "byteOffset" : 353568
        },
        {
            "buffer" : 0,
            "byteLength" : 73440,
            "byteOffset" : 408976
        }
    ],
    "buffers" : [
        {
            "byteLength" : 482416,
            "uri" : "data:application/octet-stream;base64,"
        }
    ]
}
